<svg width="151" height="152" viewBox="0 0 151 152" fill="none" xmlns="http://www.w3.org/2000/svg">
<path d="M74.6421 140.56C75.214 140.56 75.8718 140.401 76.6153 140.084C77.3589 139.767 77.9595 139.355 78.417 138.848L136.243 74.5593C137.73 72.9109 138.846 71.0406 139.589 68.9484C140.333 66.8562 140.705 64.7322 140.705 62.5766C140.705 60.421 140.333 58.2653 139.589 56.1097C138.846 53.9541 137.73 52.0521 136.243 50.4036L105.357 16.1672C103.87 14.5188 102.154 13.2825 100.209 12.4583C98.2644 11.634 96.3197 11.2219 94.375 11.2219C92.4303 11.2219 90.5142 11.634 88.6267 12.4583C86.7392 13.2825 85.0519 14.5188 83.5648 16.1672L80.4761 19.5909L94.375 35.1875C95.8621 36.9627 97.1777 39.0232 98.3216 41.369C99.4655 43.7149 100.037 46.2826 100.037 49.0722C100.037 53.8907 98.3502 58.1385 94.9756 61.8158C91.6009 65.493 87.7402 67.3317 83.3932 67.3317C80.5333 67.3317 78.1597 66.8562 76.2722 65.9052C74.3847 64.9541 72.6402 63.591 71.0386 61.8158L58.5125 47.931L27.4545 82.3577C26.8826 82.9917 26.4822 83.6574 26.2534 84.3548C26.0246 85.0522 25.9102 85.7813 25.9102 86.5421C25.9102 88.1905 26.3964 89.5537 27.3688 90.6315C28.3411 91.7093 29.5708 92.2482 31.058 92.2482C31.7443 92.2482 32.4021 92.058 33.0312 91.6776C33.6604 91.2972 34.2038 90.8534 34.6614 90.3462L58.3409 64.0982L65.5477 72.0867L42.0398 98.1445C41.4678 98.7785 41.0674 99.4759 40.8386 100.237C40.6098 100.997 40.4955 101.758 40.4955 102.519C40.4955 104.041 41.0102 105.372 42.0398 106.513C43.0693 107.655 44.2705 108.225 45.6432 108.225C46.3295 108.225 46.9873 108.067 47.6165 107.75C48.2456 107.433 48.789 107.021 49.2466 106.513L72.9261 80.2654L80.133 88.2539L56.625 114.312C56.1674 114.819 55.7956 115.485 55.5097 116.309C55.2237 117.133 55.0807 117.926 55.0807 118.686C55.0807 120.208 55.5955 121.539 56.625 122.681C57.6545 123.822 58.8557 124.392 60.2284 124.392C60.9148 124.392 61.5439 124.266 62.1159 124.012C62.6879 123.758 63.2599 123.315 63.8318 122.681L87.5114 96.4326L94.7182 104.421L71.0386 130.669C70.4667 131.303 70.0663 132.001 69.8375 132.761C69.6087 133.522 69.4943 134.22 69.4943 134.854C69.4943 136.629 69.9519 138.024 70.8671 139.038C71.7822 140.052 73.0405 140.56 74.6421 140.56ZM74.6421 151.972C70.8671 151.972 67.4924 150.418 64.5182 147.312C61.5439 144.205 59.7708 140.369 59.1989 135.805C55.3095 135.171 52.0492 133.395 49.4182 130.479C46.7871 127.562 45.1856 123.949 44.6136 119.637C40.7242 119.003 37.4926 117.196 34.9188 114.217C32.3449 111.237 30.772 107.655 30.2 103.47C25.9674 102.836 22.4784 100.934 19.733 97.7641C16.9875 94.594 15.6148 90.79 15.6148 86.3519C15.6148 84.1963 15.9866 82.0407 16.7301 79.885C17.4737 77.7294 18.589 75.8274 20.0761 74.179L58.5125 31.5736L77.3875 52.4959C78.3027 53.5103 79.3036 54.3028 80.3903 54.8734C81.4771 55.444 82.5352 55.7293 83.5648 55.7293C85.0519 55.7293 86.4532 55.0002 87.7688 53.542C89.0843 52.0838 89.7421 50.5304 89.7421 48.882C89.7421 48.1212 89.5419 47.2653 89.1415 46.3143C88.7411 45.3633 88.0833 44.3806 87.1682 43.3662L62.6307 16.1672C61.1436 14.5188 59.4277 13.2825 57.483 12.4583C55.5383 11.634 53.5936 11.2219 51.6489 11.2219C49.7042 11.2219 47.7881 11.634 45.9006 12.4583C44.0131 13.2825 42.3258 14.5188 40.8386 16.1672L14.7568 45.078C13.1553 46.8532 12.04 48.7235 11.4108 50.6889C10.7816 52.6544 10.4098 54.8417 10.2955 57.2509C10.1811 59.787 10.61 62.2279 11.5824 64.5737C12.5547 66.9196 13.7273 69.0435 15.1 70.9455L7.72159 79.1242C5.43371 76.3346 3.57481 72.9743 2.14489 69.0435C0.714962 65.1126 0 61.1184 0 57.0607C0 53.2567 0.657765 49.6111 1.9733 46.1241C3.28883 42.637 5.14773 39.5621 7.55 36.8993L33.4602 8.1787C35.9769 5.38907 38.8367 3.32854 42.0398 1.99712C45.2428 0.665707 48.503 0 51.8205 0C55.1379 0 58.3695 0.665707 61.5153 1.99712C64.6612 3.32854 67.4924 5.38907 70.0091 8.1787L73.0977 11.6023L76.1864 8.1787C78.703 5.38907 81.5629 3.32854 84.7659 1.99712C87.9689 0.665707 91.2292 0 94.5466 0C97.864 0 101.096 0.665707 104.241 1.99712C107.387 3.32854 110.219 5.38907 112.735 8.1787L143.45 42.2249C145.967 45.0146 147.854 48.1846 149.113 51.7351C150.371 55.2855 151 58.8994 151 62.5766C151 66.2539 150.371 69.836 149.113 73.3231C147.854 76.8101 145.967 79.9484 143.45 82.7381L85.6239 146.836C84.1367 148.485 82.4494 149.753 80.5619 150.64C78.6744 151.528 76.7011 151.972 74.6421 151.972Z" fill="#F2B822"/>
</svg>
