<svg width="151" height="152" viewBox="0 0 151 152" fill="none" xmlns="http://www.w3.org/2000/svg">
<path d="M76.255 120.248C78.2683 120.248 79.9671 119.551 81.3512 118.158C82.7354 116.765 83.4275 115.055 83.4275 113.029C83.4275 111.003 82.7354 109.293 81.3512 107.9C79.9671 106.507 78.2683 105.81 76.255 105.81C74.2417 105.81 72.5429 106.507 71.1588 107.9C69.7746 109.293 69.0825 111.003 69.0825 113.029C69.0825 115.055 69.7746 116.765 71.1588 118.158C72.5429 119.551 74.2417 120.248 76.255 120.248ZM69.6488 92.5128H80.785C80.785 89.2201 81.194 86.2123 82.0119 83.4895C82.8298 80.7667 85.3779 77.6322 89.6562 74.0862C93.5571 70.7935 96.3254 67.5641 97.9613 64.398C99.5971 61.232 100.415 57.7493 100.415 53.95C100.415 47.2379 98.2444 41.8556 93.9031 37.803C89.5619 33.7504 83.805 31.7241 76.6325 31.7241C70.4667 31.7241 65.0244 33.2755 60.3056 36.3782C55.5869 39.481 52.1579 43.7552 50.0188 49.2009L60.0225 53.0002C61.4067 49.4541 63.4829 46.6997 66.2513 44.7367C69.0196 42.7737 72.2913 41.7922 76.0663 41.7922C80.3446 41.7922 83.805 42.9637 86.4475 45.3066C89.09 47.6495 90.4113 50.6573 90.4113 54.3299C90.4113 57.1161 89.5933 59.7439 87.9575 62.2134C86.3217 64.683 83.9308 67.2475 80.785 69.907C77.01 73.1997 74.2102 76.4608 72.3856 79.6902C70.561 82.9196 69.6488 87.1938 69.6488 92.5128ZM75.5 151.972C65.1817 151.972 55.4296 149.977 46.2438 145.988C37.0579 141.999 29.036 136.553 22.1781 129.651C15.3202 122.749 9.90937 114.675 5.94562 105.43C1.98187 96.1855 0 86.3706 0 75.9859C0 65.4745 1.98187 55.5963 5.94562 46.3514C9.90937 37.1064 15.3202 29.0646 22.1781 22.2259C29.036 15.3871 37.0579 9.97315 46.2438 5.98389C55.4296 1.99463 65.1817 0 75.5 0C85.9442 0 95.7592 1.99463 104.945 5.98389C114.131 9.97315 122.121 15.3871 128.916 22.2259C135.711 29.0646 141.091 37.1064 145.054 46.3514C149.018 55.5963 151 65.4745 151 75.9859C151 86.3706 149.018 96.1855 145.054 105.43C141.091 114.675 135.711 122.749 128.916 129.651C122.121 136.553 114.131 141.999 104.945 145.988C95.7592 149.977 85.9442 151.972 75.5 151.972ZM75.5 140.574C93.3683 140.574 108.531 134.273 120.989 121.672C133.446 109.071 139.675 93.8426 139.675 75.9859C139.675 58.0026 133.446 42.7421 120.989 30.2044C108.531 17.6667 93.3683 11.3979 75.5 11.3979C57.7575 11.3979 42.626 17.6667 30.1056 30.2044C17.5852 42.7421 11.325 58.0026 11.325 75.9859C11.325 93.8426 17.5852 109.071 30.1056 121.672C42.626 134.273 57.7575 140.574 75.5 140.574Z" fill="#F2B822"/>
</svg>
